<mxfile host="app.diagrams.net" modified="2023-07-10T08:07:09.999Z" agent="Mozilla/5.0 (Windows NT 10.0; Win64; x64) AppleWebKit/537.36 (KHTML, like Gecko) Chrome/114.0.0.0 Safari/537.36 Edg/114.0.1823.67" etag="z9WiKIp0lFaK7LnSVmuL" version="21.6.1" type="github">
  <diagram name="Page-1" id="UjbjE2tEJPNOVUMmgGH9">
    <mxGraphModel dx="794" dy="480" grid="1" gridSize="10" guides="1" tooltips="1" connect="1" arrows="1" fold="1" page="1" pageScale="1" pageWidth="850" pageHeight="1100" math="0" shadow="0">
      <root>
        <mxCell id="0" />
        <mxCell id="1" parent="0" />
        <mxCell id="xd6MAsxaFKDQ0-wXbGbq-64" style="edgeStyle=orthogonalEdgeStyle;rounded=0;orthogonalLoop=1;jettySize=auto;html=1;exitX=0.5;exitY=0.5;exitDx=0;exitDy=20;exitPerimeter=0;entryX=0.507;entryY=0.145;entryDx=0;entryDy=0;entryPerimeter=0;" edge="1" parent="1" source="xd6MAsxaFKDQ0-wXbGbq-4" target="xd6MAsxaFKDQ0-wXbGbq-24">
          <mxGeometry relative="1" as="geometry" />
        </mxCell>
        <mxCell id="xd6MAsxaFKDQ0-wXbGbq-4" value="Start" style="html=1;dashed=0;whiteSpace=wrap;shape=mxgraph.dfd.start;fontSize=11;" vertex="1" parent="1">
          <mxGeometry x="80" y="40" width="100" height="40" as="geometry" />
        </mxCell>
        <mxCell id="xd6MAsxaFKDQ0-wXbGbq-71" style="edgeStyle=orthogonalEdgeStyle;rounded=0;orthogonalLoop=1;jettySize=auto;html=1;exitX=0.5;exitY=1;exitDx=0;exitDy=0;entryX=0.5;entryY=0;entryDx=0;entryDy=0;" edge="1" parent="1" source="xd6MAsxaFKDQ0-wXbGbq-7" target="xd6MAsxaFKDQ0-wXbGbq-34">
          <mxGeometry relative="1" as="geometry" />
        </mxCell>
        <mxCell id="xd6MAsxaFKDQ0-wXbGbq-7" value="Upload file" style="whiteSpace=wrap;html=1;strokeWidth=1;fontSize=11;" vertex="1" parent="1">
          <mxGeometry x="230" y="160" width="100" height="50" as="geometry" />
        </mxCell>
        <mxCell id="xd6MAsxaFKDQ0-wXbGbq-8" value="&amp;nbsp;Is there an&amp;nbsp;&lt;br&gt;error?" style="rhombus;whiteSpace=wrap;html=1;strokeWidth=1;fontSize=11;spacingTop=5;" vertex="1" parent="1">
          <mxGeometry x="550" y="300" width="100" height="70" as="geometry" />
        </mxCell>
        <mxCell id="xd6MAsxaFKDQ0-wXbGbq-85" style="edgeStyle=orthogonalEdgeStyle;rounded=0;orthogonalLoop=1;jettySize=auto;html=1;exitX=0.5;exitY=1;exitDx=0;exitDy=0;entryX=0.5;entryY=0;entryDx=0;entryDy=0;" edge="1" parent="1" source="xd6MAsxaFKDQ0-wXbGbq-13" target="xd6MAsxaFKDQ0-wXbGbq-16">
          <mxGeometry relative="1" as="geometry" />
        </mxCell>
        <mxCell id="xd6MAsxaFKDQ0-wXbGbq-13" value="Validate Project Details" style="whiteSpace=wrap;html=1;strokeWidth=1;fontSize=11;" vertex="1" parent="1">
          <mxGeometry x="380" y="160" width="100" height="50" as="geometry" />
        </mxCell>
        <mxCell id="xd6MAsxaFKDQ0-wXbGbq-87" style="edgeStyle=orthogonalEdgeStyle;rounded=0;orthogonalLoop=1;jettySize=auto;html=1;exitX=0.5;exitY=1;exitDx=0;exitDy=0;entryX=0.5;entryY=0;entryDx=0;entryDy=0;" edge="1" parent="1" source="xd6MAsxaFKDQ0-wXbGbq-15" target="xd6MAsxaFKDQ0-wXbGbq-45">
          <mxGeometry relative="1" as="geometry" />
        </mxCell>
        <mxCell id="xd6MAsxaFKDQ0-wXbGbq-15" value="&amp;nbsp;Is there an &lt;br&gt;error?" style="rhombus;whiteSpace=wrap;html=1;strokeWidth=1;fontSize=11;spacingTop=5;" vertex="1" parent="1">
          <mxGeometry x="380" y="300" width="100" height="70" as="geometry" />
        </mxCell>
        <mxCell id="xd6MAsxaFKDQ0-wXbGbq-86" style="edgeStyle=orthogonalEdgeStyle;rounded=0;orthogonalLoop=1;jettySize=auto;html=1;exitX=0.5;exitY=1;exitDx=0;exitDy=0;entryX=0.5;entryY=0;entryDx=0;entryDy=0;" edge="1" parent="1" source="xd6MAsxaFKDQ0-wXbGbq-16" target="xd6MAsxaFKDQ0-wXbGbq-15">
          <mxGeometry relative="1" as="geometry" />
        </mxCell>
        <mxCell id="xd6MAsxaFKDQ0-wXbGbq-16" value="Validate WBS Details" style="whiteSpace=wrap;html=1;strokeWidth=1;fontSize=11;" vertex="1" parent="1">
          <mxGeometry x="380" y="230" width="100" height="50" as="geometry" />
        </mxCell>
        <mxCell id="xd6MAsxaFKDQ0-wXbGbq-78" style="edgeStyle=orthogonalEdgeStyle;rounded=0;orthogonalLoop=1;jettySize=auto;html=1;exitX=0.5;exitY=1;exitDx=0;exitDy=0;entryX=0.5;entryY=0;entryDx=0;entryDy=0;" edge="1" parent="1" source="xd6MAsxaFKDQ0-wXbGbq-17" target="xd6MAsxaFKDQ0-wXbGbq-36">
          <mxGeometry relative="1" as="geometry" />
        </mxCell>
        <mxCell id="xd6MAsxaFKDQ0-wXbGbq-82" style="edgeStyle=orthogonalEdgeStyle;rounded=0;orthogonalLoop=1;jettySize=auto;html=1;exitX=0;exitY=0.5;exitDx=0;exitDy=0;entryX=0;entryY=0.5;entryDx=0;entryDy=0;entryPerimeter=0;" edge="1" parent="1" source="xd6MAsxaFKDQ0-wXbGbq-17" target="xd6MAsxaFKDQ0-wXbGbq-81">
          <mxGeometry relative="1" as="geometry" />
        </mxCell>
        <mxCell id="xd6MAsxaFKDQ0-wXbGbq-17" value="Does it have&amp;nbsp;&lt;br&gt;a data?" style="rhombus;whiteSpace=wrap;html=1;strokeWidth=1;fontSize=11;spacingTop=5;" vertex="1" parent="1">
          <mxGeometry x="230" y="370" width="100" height="70" as="geometry" />
        </mxCell>
        <mxCell id="xd6MAsxaFKDQ0-wXbGbq-18" value="Create Project and WBS" style="whiteSpace=wrap;html=1;strokeWidth=1;fontSize=11;" vertex="1" parent="1">
          <mxGeometry x="550" y="160" width="100" height="50" as="geometry" />
        </mxCell>
        <mxCell id="xd6MAsxaFKDQ0-wXbGbq-65" style="edgeStyle=orthogonalEdgeStyle;rounded=0;orthogonalLoop=1;jettySize=auto;html=1;exitX=0.5;exitY=1;exitDx=0;exitDy=0;entryX=0.5;entryY=0;entryDx=0;entryDy=0;" edge="1" parent="1" source="xd6MAsxaFKDQ0-wXbGbq-24" target="xd6MAsxaFKDQ0-wXbGbq-27">
          <mxGeometry relative="1" as="geometry" />
        </mxCell>
        <mxCell id="xd6MAsxaFKDQ0-wXbGbq-24" value="&lt;br style=&quot;font-size: 11px;&quot;&gt;&lt;br style=&quot;font-size: 11px;&quot;&gt;Select file from local directory,&lt;br&gt;Select Execution Option (Test Run, Actual Run)" style="shape=manualInput;whiteSpace=wrap;html=1;fontSize=11;" vertex="1" parent="1">
          <mxGeometry x="80" y="90" width="100" height="110" as="geometry" />
        </mxCell>
        <mxCell id="xd6MAsxaFKDQ0-wXbGbq-66" style="edgeStyle=orthogonalEdgeStyle;rounded=0;orthogonalLoop=1;jettySize=auto;html=1;exitX=0.5;exitY=1;exitDx=0;exitDy=0;entryX=0.5;entryY=0;entryDx=0;entryDy=0;" edge="1" parent="1" source="xd6MAsxaFKDQ0-wXbGbq-27" target="xd6MAsxaFKDQ0-wXbGbq-29">
          <mxGeometry relative="1" as="geometry" />
        </mxCell>
        <mxCell id="xd6MAsxaFKDQ0-wXbGbq-27" value="&amp;nbsp; &amp;nbsp; a = File Path&lt;br&gt;b = Option" style="shape=parallelogram;perimeter=parallelogramPerimeter;whiteSpace=wrap;html=1;fixedSize=1;fontSize=11;" vertex="1" parent="1">
          <mxGeometry x="80" y="220" width="100" height="50" as="geometry" />
        </mxCell>
        <mxCell id="xd6MAsxaFKDQ0-wXbGbq-67" style="edgeStyle=orthogonalEdgeStyle;rounded=0;orthogonalLoop=1;jettySize=auto;html=1;exitX=0.5;exitY=1;exitDx=0;exitDy=0;entryX=0.5;entryY=0;entryDx=0;entryDy=0;" edge="1" parent="1" source="xd6MAsxaFKDQ0-wXbGbq-29" target="xd6MAsxaFKDQ0-wXbGbq-30">
          <mxGeometry relative="1" as="geometry" />
        </mxCell>
        <mxCell id="xd6MAsxaFKDQ0-wXbGbq-29" value="a &amp;lt;&amp;gt; space?&lt;br&gt;" style="rhombus;whiteSpace=wrap;html=1;strokeWidth=1;fontSize=11;spacingTop=5;" vertex="1" parent="1">
          <mxGeometry x="80" y="290" width="100" height="70" as="geometry" />
        </mxCell>
        <mxCell id="xd6MAsxaFKDQ0-wXbGbq-68" style="edgeStyle=orthogonalEdgeStyle;rounded=0;orthogonalLoop=1;jettySize=auto;html=1;exitX=0.5;exitY=1;exitDx=0;exitDy=0;entryX=0.5;entryY=0;entryDx=0;entryDy=0;" edge="1" parent="1" source="xd6MAsxaFKDQ0-wXbGbq-30" target="xd6MAsxaFKDQ0-wXbGbq-31">
          <mxGeometry relative="1" as="geometry" />
        </mxCell>
        <mxCell id="xd6MAsxaFKDQ0-wXbGbq-30" value="Proceed with Data Selection" style="whiteSpace=wrap;html=1;strokeWidth=1;fontSize=11;" vertex="1" parent="1">
          <mxGeometry x="80" y="380" width="100" height="50" as="geometry" />
        </mxCell>
        <mxCell id="xd6MAsxaFKDQ0-wXbGbq-31" value="A" style="ellipse;whiteSpace=wrap;html=1;aspect=fixed;" vertex="1" parent="1">
          <mxGeometry x="115" y="450" width="30" height="30" as="geometry" />
        </mxCell>
        <mxCell id="xd6MAsxaFKDQ0-wXbGbq-69" style="edgeStyle=orthogonalEdgeStyle;rounded=0;orthogonalLoop=1;jettySize=auto;html=1;exitX=0.5;exitY=1;exitDx=0;exitDy=0;entryX=0.5;entryY=0;entryDx=0;entryDy=0;" edge="1" parent="1" source="xd6MAsxaFKDQ0-wXbGbq-32" target="xd6MAsxaFKDQ0-wXbGbq-33">
          <mxGeometry relative="1" as="geometry" />
        </mxCell>
        <mxCell id="xd6MAsxaFKDQ0-wXbGbq-32" value="A" style="ellipse;whiteSpace=wrap;html=1;aspect=fixed;" vertex="1" parent="1">
          <mxGeometry x="265" y="45" width="30" height="30" as="geometry" />
        </mxCell>
        <mxCell id="xd6MAsxaFKDQ0-wXbGbq-70" style="edgeStyle=orthogonalEdgeStyle;rounded=0;orthogonalLoop=1;jettySize=auto;html=1;exitX=0.5;exitY=1;exitDx=0;exitDy=0;entryX=0.5;entryY=0;entryDx=0;entryDy=0;" edge="1" parent="1" source="xd6MAsxaFKDQ0-wXbGbq-33" target="xd6MAsxaFKDQ0-wXbGbq-7">
          <mxGeometry relative="1" as="geometry" />
        </mxCell>
        <mxCell id="xd6MAsxaFKDQ0-wXbGbq-33" value="Data Selection" style="shape=process;whiteSpace=wrap;html=1;backgroundOutline=1;fontSize=11;" vertex="1" parent="1">
          <mxGeometry x="230" y="90" width="100" height="50" as="geometry" />
        </mxCell>
        <mxCell id="xd6MAsxaFKDQ0-wXbGbq-72" value="" style="edgeStyle=orthogonalEdgeStyle;rounded=0;orthogonalLoop=1;jettySize=auto;html=1;" edge="1" parent="1" source="xd6MAsxaFKDQ0-wXbGbq-34" target="xd6MAsxaFKDQ0-wXbGbq-35">
          <mxGeometry relative="1" as="geometry" />
        </mxCell>
        <mxCell id="xd6MAsxaFKDQ0-wXbGbq-34" value="Project Details Sheet" style="shape=document;whiteSpace=wrap;html=1;boundedLbl=1;fontSize=11;" vertex="1" parent="1">
          <mxGeometry x="230" y="230" width="100" height="50" as="geometry" />
        </mxCell>
        <mxCell id="xd6MAsxaFKDQ0-wXbGbq-77" value="" style="edgeStyle=orthogonalEdgeStyle;rounded=0;orthogonalLoop=1;jettySize=auto;html=1;" edge="1" parent="1" source="xd6MAsxaFKDQ0-wXbGbq-35" target="xd6MAsxaFKDQ0-wXbGbq-17">
          <mxGeometry relative="1" as="geometry" />
        </mxCell>
        <mxCell id="xd6MAsxaFKDQ0-wXbGbq-35" value="WBS Details &lt;br&gt;Sheet" style="shape=document;whiteSpace=wrap;html=1;boundedLbl=1;fontSize=11;" vertex="1" parent="1">
          <mxGeometry x="230" y="300" width="100" height="50" as="geometry" />
        </mxCell>
        <mxCell id="xd6MAsxaFKDQ0-wXbGbq-79" style="edgeStyle=orthogonalEdgeStyle;rounded=0;orthogonalLoop=1;jettySize=auto;html=1;exitX=0.5;exitY=1;exitDx=0;exitDy=0;entryX=0.5;entryY=0;entryDx=0;entryDy=0;" edge="1" parent="1" source="xd6MAsxaFKDQ0-wXbGbq-36" target="xd6MAsxaFKDQ0-wXbGbq-38">
          <mxGeometry relative="1" as="geometry" />
        </mxCell>
        <mxCell id="xd6MAsxaFKDQ0-wXbGbq-36" value="Proceed with Data Validation" style="whiteSpace=wrap;html=1;strokeWidth=1;fontSize=11;" vertex="1" parent="1">
          <mxGeometry x="230" y="460" width="100" height="50" as="geometry" />
        </mxCell>
        <mxCell id="xd6MAsxaFKDQ0-wXbGbq-38" value="B" style="ellipse;whiteSpace=wrap;html=1;aspect=fixed;" vertex="1" parent="1">
          <mxGeometry x="265" y="530" width="30" height="30" as="geometry" />
        </mxCell>
        <mxCell id="xd6MAsxaFKDQ0-wXbGbq-83" style="edgeStyle=orthogonalEdgeStyle;rounded=0;orthogonalLoop=1;jettySize=auto;html=1;exitX=0.5;exitY=1;exitDx=0;exitDy=0;entryX=0.5;entryY=0;entryDx=0;entryDy=0;" edge="1" parent="1" source="xd6MAsxaFKDQ0-wXbGbq-39" target="xd6MAsxaFKDQ0-wXbGbq-40">
          <mxGeometry relative="1" as="geometry" />
        </mxCell>
        <mxCell id="xd6MAsxaFKDQ0-wXbGbq-39" value="B" style="ellipse;whiteSpace=wrap;html=1;aspect=fixed;" vertex="1" parent="1">
          <mxGeometry x="415" y="45" width="30" height="30" as="geometry" />
        </mxCell>
        <mxCell id="xd6MAsxaFKDQ0-wXbGbq-84" style="edgeStyle=orthogonalEdgeStyle;rounded=0;orthogonalLoop=1;jettySize=auto;html=1;exitX=0.5;exitY=1;exitDx=0;exitDy=0;entryX=0.5;entryY=0;entryDx=0;entryDy=0;" edge="1" parent="1" source="xd6MAsxaFKDQ0-wXbGbq-40" target="xd6MAsxaFKDQ0-wXbGbq-13">
          <mxGeometry relative="1" as="geometry" />
        </mxCell>
        <mxCell id="xd6MAsxaFKDQ0-wXbGbq-40" value="Data Validation" style="shape=process;whiteSpace=wrap;html=1;backgroundOutline=1;fontSize=11;" vertex="1" parent="1">
          <mxGeometry x="380" y="90" width="100" height="50" as="geometry" />
        </mxCell>
        <mxCell id="xd6MAsxaFKDQ0-wXbGbq-45" value="Proceed with Data Creation" style="whiteSpace=wrap;html=1;strokeWidth=1;fontSize=11;" vertex="1" parent="1">
          <mxGeometry x="380" y="390" width="100" height="50" as="geometry" />
        </mxCell>
        <mxCell id="xd6MAsxaFKDQ0-wXbGbq-46" value="C" style="ellipse;whiteSpace=wrap;html=1;aspect=fixed;" vertex="1" parent="1">
          <mxGeometry x="415" y="460" width="30" height="30" as="geometry" />
        </mxCell>
        <mxCell id="xd6MAsxaFKDQ0-wXbGbq-47" value="C" style="ellipse;whiteSpace=wrap;html=1;aspect=fixed;" vertex="1" parent="1">
          <mxGeometry x="585" y="45" width="30" height="30" as="geometry" />
        </mxCell>
        <mxCell id="xd6MAsxaFKDQ0-wXbGbq-48" value="Process Data" style="shape=process;whiteSpace=wrap;html=1;backgroundOutline=1;fontSize=11;" vertex="1" parent="1">
          <mxGeometry x="550" y="90" width="100" height="50" as="geometry" />
        </mxCell>
        <mxCell id="xd6MAsxaFKDQ0-wXbGbq-51" value="Initiate Pre-commit" style="whiteSpace=wrap;html=1;strokeWidth=1;fontSize=11;" vertex="1" parent="1">
          <mxGeometry x="550" y="230" width="100" height="50" as="geometry" />
        </mxCell>
        <mxCell id="xd6MAsxaFKDQ0-wXbGbq-53" value="Does b &amp;lt;&amp;gt;&lt;br&gt;test run?" style="rhombus;whiteSpace=wrap;html=1;strokeWidth=1;fontSize=11;spacingTop=5;" vertex="1" parent="1">
          <mxGeometry x="550" y="390" width="100" height="70" as="geometry" />
        </mxCell>
        <mxCell id="xd6MAsxaFKDQ0-wXbGbq-54" value="Initiate Commit" style="whiteSpace=wrap;html=1;strokeWidth=1;fontSize=11;" vertex="1" parent="1">
          <mxGeometry x="550" y="480" width="100" height="50" as="geometry" />
        </mxCell>
        <mxCell id="xd6MAsxaFKDQ0-wXbGbq-55" value="D" style="ellipse;whiteSpace=wrap;html=1;aspect=fixed;" vertex="1" parent="1">
          <mxGeometry x="735" y="45" width="30" height="30" as="geometry" />
        </mxCell>
        <mxCell id="xd6MAsxaFKDQ0-wXbGbq-56" value="Build ALV" style="shape=process;whiteSpace=wrap;html=1;backgroundOutline=1;fontSize=11;" vertex="1" parent="1">
          <mxGeometry x="700" y="90" width="100" height="50" as="geometry" />
        </mxCell>
        <mxCell id="xd6MAsxaFKDQ0-wXbGbq-58" value="End" style="html=1;dashed=0;whiteSpace=wrap;shape=mxgraph.dfd.start;fontSize=11;" vertex="1" parent="1">
          <mxGeometry x="700" y="230" width="100" height="40" as="geometry" />
        </mxCell>
        <mxCell id="xd6MAsxaFKDQ0-wXbGbq-61" value="Display Output" style="shape=display;whiteSpace=wrap;html=1;fontSize=11;" vertex="1" parent="1">
          <mxGeometry x="700" y="160" width="100" height="50" as="geometry" />
        </mxCell>
        <mxCell id="xd6MAsxaFKDQ0-wXbGbq-62" value="Return &lt;br&gt;Successful" style="shape=parallelogram;perimeter=parallelogramPerimeter;whiteSpace=wrap;html=1;fixedSize=1;fontSize=11;" vertex="1" parent="1">
          <mxGeometry x="550" y="550" width="100" height="50" as="geometry" />
        </mxCell>
        <mxCell id="xd6MAsxaFKDQ0-wXbGbq-81" value="End" style="html=1;dashed=0;whiteSpace=wrap;shape=mxgraph.dfd.start;fontSize=11;" vertex="1" parent="1">
          <mxGeometry x="230" y="580" width="100" height="40" as="geometry" />
        </mxCell>
      </root>
    </mxGraphModel>
  </diagram>
</mxfile>
